<svg width="136" height="41" viewBox="0 0 136 41" fill="none" xmlns="http://www.w3.org/2000/svg">
<path fill-rule="evenodd" clip-rule="evenodd" d="M89.1216 16.1822C90.2336 16.1822 91.1062 16.5289 91.7422 17.2234C92.3788 17.9167 92.7184 18.9063 92.7644 20.1904C92.774 20.3151 92.7791 20.4831 92.7805 20.6948L92.781 20.8272C92.781 21.1023 92.776 21.3202 92.7644 21.4806C92.7184 22.7203 92.3743 23.6949 91.7339 24.4059C91.0917 25.117 90.2202 25.4725 89.1216 25.4725C88.0096 25.4725 87.1786 25.0937 86.6296 24.3372V28.1389C86.6296 28.2654 86.5891 28.3685 86.5088 28.4484C86.4291 28.5294 86.326 28.5693 86.1997 28.5693H83.983C83.8577 28.5693 83.7508 28.5294 83.6656 28.4484C83.5791 28.3685 83.5359 28.2654 83.5359 28.1389V16.7841C83.5359 16.6582 83.5791 16.5544 83.6656 16.4751C83.7508 16.3941 83.8577 16.3536 83.983 16.3536H86.0279C86.1537 16.3536 86.2573 16.3941 86.3365 16.4751C86.418 16.5544 86.4573 16.6582 86.4573 16.7841V17.4037C87.0767 16.5888 87.9637 16.1822 89.1216 16.1822ZM55.9559 13.0853C56.9647 13.0853 57.8373 13.26 58.577 13.61C59.3155 13.96 59.8834 14.3955 60.2773 14.9169C60.6734 15.4394 60.8817 15.9524 60.9055 16.4572C60.9055 16.5604 60.8701 16.6491 60.802 16.724C60.7332 16.7989 60.6479 16.836 60.5449 16.836H58.1382C57.8866 16.836 57.6916 16.7323 57.5547 16.526C57.4861 16.2852 57.3072 16.0817 57.0218 15.9153C56.7354 15.7489 56.3803 15.6657 55.9559 15.6657C55.475 15.6657 55.1032 15.7517 54.8389 15.9236C54.5758 16.0961 54.4445 16.3479 54.4445 16.6807C54.4445 17.0141 54.6151 17.2742 54.9597 17.4639C55.3032 17.6531 55.9453 17.8456 56.8833 18.0403C57.9603 18.2355 58.8174 18.479 59.4523 18.7713C60.0889 19.0636 60.5587 19.4425 60.8624 19.9068C61.1659 20.3716 61.3183 20.959 61.3183 21.6701C61.3183 22.4506 61.0945 23.1273 60.6479 23.7002C60.2008 24.2743 59.5826 24.713 58.7914 25.0164C58.0007 25.3204 57.0961 25.4724 56.0766 25.4724C54.9647 25.4724 54.0195 25.3116 53.2406 24.9909C52.4616 24.6698 51.871 24.2455 51.4716 23.7174C51.0699 23.1905 50.8571 22.6164 50.835 21.9973C50.835 21.8941 50.8732 21.8082 50.9469 21.7394C51.0211 21.6701 51.1103 21.6357 51.2128 21.6357H53.4993C53.6361 21.6357 53.748 21.6584 53.8334 21.705C53.9203 21.7505 54.014 21.8309 54.117 21.9457C54.2655 22.2209 54.4982 22.4477 54.814 22.6247C55.1281 22.8038 55.5492 22.8915 56.0766 22.8915C56.6944 22.8915 57.1703 22.7972 57.5027 22.608C57.8346 22.4189 58.0007 22.1582 58.0007 21.8254C58.0007 21.5841 57.9155 21.3867 57.7437 21.2318C57.5714 21.0766 57.296 20.939 56.9187 20.8192C56.5409 20.6983 55.9957 20.564 55.286 20.4143C53.8987 20.1391 52.8627 19.7204 52.1762 19.158C51.4882 18.5966 51.1441 17.7934 51.1441 16.7501C51.1441 16.0384 51.3424 15.405 51.7369 14.8486C52.1331 14.2928 52.6937 13.8596 53.4206 13.5501C54.1497 13.2395 54.9941 13.0853 55.9559 13.0853ZM120.397 16.1822C121.383 16.1822 122.216 16.3797 122.898 16.7758C123.58 17.1712 124.089 17.7159 124.428 18.4098C124.764 19.1043 124.934 19.8925 124.934 20.7761V21.2054C124.934 21.3319 124.892 21.4378 124.806 21.5243C124.72 21.6098 124.614 21.6531 124.487 21.6531H119.041V21.7562C119.052 22.2726 119.172 22.6886 119.402 23.0037C119.63 23.3193 119.957 23.4768 120.38 23.4768C120.656 23.4768 120.876 23.4225 121.042 23.3127C121.208 23.2045 121.366 23.0636 121.514 22.8911C121.618 22.7773 121.7 22.7059 121.763 22.677C121.827 22.6481 121.927 22.6343 122.063 22.6343H124.316C124.419 22.6343 124.508 22.6653 124.582 22.7286C124.657 22.7919 124.693 22.8689 124.693 22.9605C124.693 23.2594 124.524 23.6083 124.187 24.0105C123.848 24.4115 123.356 24.7559 122.709 25.0422C122.061 25.3289 121.297 25.4725 120.416 25.4725C119.017 25.4725 117.918 25.0965 117.115 24.3461C116.313 23.5944 115.901 22.5023 115.879 21.0679V20.5342C115.923 19.1703 116.347 18.1031 117.15 17.3343C117.951 16.5666 119.034 16.1822 120.397 16.1822ZM134.969 13.0854C135.095 13.0854 135.202 13.1259 135.286 13.2057C135.372 13.2862 135.415 13.3888 135.415 13.5147V24.8707C135.415 24.9971 135.372 25.1003 135.286 25.1801C135.202 25.2606 135.095 25.3005 134.969 25.3005H132.923C132.809 25.3005 132.709 25.2578 132.622 25.1719C132.538 25.0859 132.493 24.9855 132.493 24.8707V24.337C131.876 25.0936 130.988 25.4724 129.831 25.4724C128.72 25.4724 127.846 25.1225 127.21 24.423C126.575 23.7236 126.233 22.7257 126.189 21.4294L126.17 20.827L126.189 20.2086C126.233 18.9578 126.577 17.9743 127.219 17.2577C127.859 16.541 128.73 16.1821 129.831 16.1821C130.862 16.1821 131.692 16.5149 132.322 17.1795V13.5147C132.322 13.3888 132.366 13.2862 132.45 13.2057C132.538 13.1259 132.638 13.0854 132.752 13.0854H134.969ZM65.3567 16.3535C65.4825 16.3535 65.5894 16.394 65.6742 16.475C65.7595 16.5543 65.8033 16.6581 65.8033 16.784V24.8707C65.8033 24.9971 65.7595 25.1003 65.6742 25.1801C65.5894 25.2606 65.4825 25.3 65.3567 25.3H63.2088C63.0941 25.3 62.9932 25.2578 62.9079 25.1719C62.8215 25.0859 62.7783 24.9855 62.7783 24.8707V16.784C62.7783 16.6581 62.8215 16.5543 62.9079 16.475C62.9932 16.394 63.0941 16.3535 63.2088 16.3535H65.3567ZM78.4846 16.1821C79.4242 16.1821 80.1893 16.5 80.7794 17.1373C81.3683 17.7735 81.6631 18.7226 81.6631 19.984V24.8707C81.6631 24.9855 81.6243 25.0859 81.5434 25.1719C81.463 25.2578 81.36 25.3 81.2342 25.3H79.1211C78.9949 25.3 78.889 25.2606 78.8021 25.1801C78.7167 25.1003 78.6735 24.9971 78.6735 24.8707V20.1043C78.6735 19.5773 78.5616 19.1901 78.3388 18.9434C78.1151 18.697 77.8147 18.5734 77.4369 18.5734C77.0818 18.5734 76.792 18.697 76.5687 18.9434C76.3449 19.1901 76.233 19.5773 76.233 20.1043V24.8707C76.233 24.9855 76.1936 25.0859 76.1128 25.1719C76.033 25.2578 75.9294 25.3 75.8036 25.3H73.6905C73.5648 25.3 73.4584 25.2606 73.372 25.1801C73.2861 25.1003 73.2429 24.9971 73.2429 24.8707V20.1043C73.2429 19.5773 73.1282 19.1901 72.9005 18.9434C72.6711 18.697 72.3731 18.5734 72.0068 18.5734C71.6517 18.5734 71.3592 18.697 71.1299 18.9434C70.901 19.1901 70.7864 19.5713 70.7864 20.0871V24.8707C70.7864 24.9855 70.7453 25.0859 70.6656 25.1719C70.5857 25.2578 70.4827 25.3 70.3564 25.3H68.1919C68.0771 25.3 67.9763 25.2578 67.891 25.1719C67.8046 25.0859 67.7613 24.9855 67.7613 24.8707V16.784C67.7613 16.6581 67.8046 16.5543 67.891 16.475C67.9763 16.394 68.0771 16.3535 68.1919 16.3535H70.1847C70.3104 16.3535 70.414 16.394 70.4933 16.475C70.5736 16.5543 70.6141 16.6581 70.6141 16.784V17.3686C70.8894 17.0363 71.2445 16.7557 71.6794 16.526C72.1144 16.297 72.6085 16.1821 73.1576 16.1821C74.4174 16.1821 75.2823 16.6752 75.7515 17.6615C76.0275 17.226 76.4108 16.8705 76.9045 16.5954C77.3964 16.3197 77.9233 16.1821 78.4846 16.1821ZM97.0271 13.0852C97.1529 13.0852 97.256 13.1257 97.3363 13.2056C97.4155 13.286 97.4565 13.3892 97.4565 13.5151V24.8705C97.4565 24.9853 97.4155 25.0857 97.3363 25.1717C97.256 25.2582 97.1529 25.3003 97.0271 25.3003H94.8786C94.7534 25.3003 94.6465 25.261 94.5618 25.1799C94.4747 25.1001 94.4315 24.9969 94.4315 24.8705V13.5151C94.4315 13.3892 94.4747 13.286 94.5618 13.2056C94.6465 13.1257 94.7534 13.0852 94.8786 13.0852H97.0271ZM101.993 16.3535C102.119 16.3535 102.225 16.394 102.311 16.475C102.396 16.5543 102.44 16.6581 102.44 16.784V24.8707C102.44 24.9971 102.396 25.1003 102.311 25.1801C102.225 25.2606 102.119 25.3 101.993 25.3H99.8451C99.7304 25.3 99.6296 25.2578 99.5442 25.1719C99.4578 25.0859 99.4146 24.9855 99.4146 24.8707V16.784C99.4146 16.6581 99.4578 16.5543 99.5442 16.475C99.6296 16.394 99.7304 16.3535 99.8451 16.3535H101.993ZM113.835 12.5693C113.96 12.5693 114.062 12.6087 114.143 12.6897C114.223 12.7701 114.263 12.8733 114.263 12.9992V14.4791C114.263 14.5939 114.223 14.6938 114.143 14.7797C114.062 14.8663 113.96 14.9084 113.835 14.9084H109.418C109.05 14.9084 108.79 14.9922 108.634 15.158C108.48 15.3244 108.404 15.5801 108.404 15.924V16.3534H113.835C113.96 16.3534 114.062 16.3944 114.143 16.4748C114.223 16.5547 114.263 16.6584 114.263 16.7844V24.8705C114.263 24.9853 114.223 25.0857 114.143 25.1717C114.062 25.2582 113.96 25.3003 113.835 25.3003H111.736C111.611 25.3003 111.505 25.261 111.419 25.1799C111.334 25.1001 111.29 24.9969 111.29 24.8705V18.6941H108.404V24.8705C108.404 24.9853 108.364 25.0857 108.284 25.1717C108.202 25.2582 108.099 25.3003 107.973 25.3003H105.876C105.751 25.3003 105.644 25.261 105.559 25.1799C105.473 25.1001 105.431 24.9969 105.431 24.8705V18.6941H104.141C104.015 18.6941 103.908 18.6542 103.824 18.5738C103.737 18.4928 103.695 18.3902 103.695 18.2637V16.7844C103.695 16.6584 103.737 16.5547 103.824 16.4748C103.908 16.3944 104.015 16.3534 104.141 16.3534H105.431V15.8375C105.431 14.691 105.762 13.8595 106.426 13.3437C107.091 12.8267 108.041 12.5693 109.279 12.5693H113.835ZM130.827 18.5739C130.312 18.5739 129.942 18.7253 129.719 19.0293C129.496 19.3333 129.367 19.7543 129.332 20.2934L129.315 20.827L129.332 21.3606C129.367 21.8998 129.496 22.3213 129.719 22.6247C129.942 22.9293 130.312 23.0818 130.827 23.0818C131.319 23.0818 131.687 22.9237 131.928 22.6081C132.169 22.2925 132.3 21.8942 132.322 21.4128C132.345 21.0911 132.357 20.8731 132.357 20.7582C132.357 20.6323 132.345 20.4205 132.322 20.1226C132.3 19.6749 132.165 19.3044 131.919 19.0121C131.672 18.7198 131.308 18.5739 130.827 18.5739ZM88.1244 18.5735C87.6318 18.5735 87.2656 18.731 87.0251 19.0466C86.7847 19.3617 86.6534 19.7611 86.6296 20.2425C86.6199 20.3668 86.6148 20.5385 86.6134 20.7586L86.613 20.8964C86.613 21.1716 86.618 21.384 86.6296 21.5327C86.6534 21.9803 86.7875 22.3497 87.0335 22.642C87.28 22.9349 87.6435 23.0814 88.1244 23.0814C88.6407 23.0814 89.0097 22.9294 89.2335 22.6248C89.4567 22.3214 89.5859 21.8993 89.6191 21.3607C89.6307 21.2464 89.6374 21.0679 89.6374 20.8272C89.6374 20.5858 89.6307 20.4083 89.6191 20.2935C89.5859 19.7544 89.4567 19.3328 89.2335 19.0294C89.0097 18.7254 88.6407 18.5735 88.1244 18.5735ZM120.397 18.1264C119.962 18.1264 119.627 18.2784 119.393 18.5818C119.158 18.8858 119.041 19.3134 119.041 19.8637V19.8981H121.772V19.8637C121.772 19.3134 121.652 18.8858 121.411 18.5818C121.17 18.2784 120.834 18.1264 120.397 18.1264ZM65.3567 12.6205C65.4825 12.6205 65.5894 12.6638 65.6742 12.7498C65.7595 12.8358 65.8033 12.9417 65.8033 13.0676V14.6679C65.8033 14.7949 65.7595 14.9003 65.6742 14.9862C65.5894 15.0722 65.4825 15.1155 65.3567 15.1155H63.2088C63.0813 15.1155 62.9794 15.0722 62.8979 14.9862C62.8187 14.9003 62.7783 14.7949 62.7783 14.6679V13.0676C62.7783 12.9417 62.8215 12.8358 62.9079 12.7498C62.9932 12.6638 63.0941 12.6205 63.2088 12.6205H65.3567ZM101.993 12.6205C102.119 12.6205 102.225 12.6638 102.311 12.7498C102.396 12.8358 102.44 12.9417 102.44 13.0676V14.6679C102.44 14.7949 102.396 14.9003 102.311 14.9862C102.225 15.0722 102.119 15.1155 101.993 15.1155H99.8451C99.7177 15.1155 99.6157 15.0722 99.5343 14.9862C99.4551 14.9003 99.4146 14.7949 99.4146 14.6679V13.0676C99.4146 12.9417 99.4578 12.8358 99.5442 12.7498C99.6296 12.6638 99.7304 12.6205 99.8451 12.6205H101.993Z" fill="white"/>
<circle cx="20.835" cy="20.5693" r="20" fill="#070906"/>
<path fill-rule="evenodd" clip-rule="evenodd" d="M29.3011 17.4467V24.5842L28.8556 25.0302L25.2907 28.5999L23.063 30.8302C22.078 31.8157 20.4824 31.8157 19.4981 30.8302C18.5138 29.8447 18.5138 28.2466 19.4981 27.2611L21.7258 25.0302L25.2907 21.4618L25.7362 21.0157L29.3011 17.4467ZM28.4102 16.5544L24.8453 20.1234L24.3997 20.5695L20.8348 24.1386L20.3893 24.5846H13.2595L17.2699 20.5695L20.8348 17.0005L21.2804 16.5544H28.4102ZM18.6067 10.3084C19.5911 9.32297 21.1873 9.32297 22.1716 10.3084C23.156 11.2939 23.156 12.892 22.1716 13.8775L15.9329 20.1235L12.3687 23.6919V16.5545L12.8142 16.1078L16.3784 12.5393L18.6067 10.3084Z" fill="#FFAD00"/>
</svg>
